<svg width="477" height="350" viewBox="0 0 477 350" fill="none" xmlns="http://www.w3.org/2000/svg">
<path d="M136.115 344.637C137.565 344.637 138.797 345.869 138.797 347.318C138.797 348.768 137.565 350 136.115 350C134.666 350 133.433 348.768 133.433 347.318C133.433 345.796 134.593 344.637 136.115 344.637Z" fill="#387ED1"/>
<path d="M136.115 324.488C137.565 324.488 138.797 325.72 138.797 327.169C138.797 328.619 137.565 329.851 136.115 329.851C134.666 329.851 133.433 328.619 133.433 327.169C133.433 325.72 134.593 324.488 136.115 324.488Z" fill="#387ED1"/>
<path d="M136.115 304.338C137.565 304.338 138.797 305.571 138.797 307.02C138.797 308.47 137.565 309.702 136.115 309.702C134.666 309.702 133.433 308.47 133.433 307.02C133.433 305.571 134.593 304.338 136.115 304.338Z" fill="#387ED1"/>
<path d="M136.115 284.189C137.565 284.189 138.797 285.421 138.797 286.871C138.797 288.321 137.565 289.553 136.115 289.553C134.666 289.553 133.433 288.321 133.433 286.871C133.433 285.421 134.593 284.189 136.115 284.189Z" fill="#387ED1"/>
<path d="M166.266 344.637C167.716 344.637 168.948 345.869 168.948 347.318C168.948 348.768 167.716 350 166.266 350C164.817 350 163.585 348.768 163.585 347.318C163.585 345.796 164.744 344.637 166.266 344.637Z" fill="#387ED1"/>
<path d="M166.266 324.488C167.716 324.488 168.948 325.72 168.948 327.169C168.948 328.619 167.716 329.851 166.266 329.851C164.817 329.851 163.585 328.619 163.585 327.169C163.585 325.72 164.744 324.488 166.266 324.488Z" fill="#387ED1"/>
<path d="M166.266 304.338C167.716 304.338 168.948 305.571 168.948 307.02C168.948 308.47 167.716 309.702 166.266 309.702C164.817 309.702 163.585 308.47 163.585 307.02C163.585 305.571 164.744 304.338 166.266 304.338Z" fill="#387ED1"/>
<path d="M166.266 284.189C167.716 284.189 168.948 285.421 168.948 286.871C168.948 288.321 167.716 289.553 166.266 289.553C164.817 289.553 163.585 288.321 163.585 286.871C163.585 285.421 164.744 284.189 166.266 284.189Z" fill="#387ED1"/>
<path d="M196.345 344.637C197.795 344.637 199.027 345.869 199.027 347.318C199.027 348.768 197.795 350 196.345 350C194.895 350 193.663 348.768 193.663 347.318C193.736 345.796 194.895 344.637 196.345 344.637Z" fill="#387ED1"/>
<path d="M196.345 324.488C197.795 324.488 199.027 325.72 199.027 327.169C199.027 328.619 197.795 329.851 196.345 329.851C194.895 329.851 193.663 328.619 193.663 327.169C193.736 325.72 194.895 324.488 196.345 324.488Z" fill="#387ED1"/>
<path d="M196.345 304.338C197.795 304.338 199.027 305.571 199.027 307.02C199.027 308.47 197.795 309.702 196.345 309.702C194.895 309.702 193.663 308.47 193.663 307.02C193.736 305.571 194.895 304.338 196.345 304.338Z" fill="#387ED1"/>
<path d="M196.345 284.189C197.795 284.189 199.027 285.421 199.027 286.871C199.027 288.321 197.795 289.553 196.345 289.553C194.895 289.553 193.663 288.321 193.663 286.871C193.736 285.421 194.895 284.189 196.345 284.189Z" fill="#387ED1"/>
<path d="M105.964 344.637C107.414 344.637 108.646 345.869 108.646 347.318C108.646 348.768 107.414 350 105.964 350C104.514 350 103.282 348.768 103.282 347.318C103.282 345.796 104.442 344.637 105.964 344.637Z" fill="#387ED1"/>
<path d="M105.964 324.488C107.414 324.488 108.646 325.72 108.646 327.169C108.646 328.619 107.414 329.851 105.964 329.851C104.514 329.851 103.282 328.619 103.282 327.169C103.282 325.72 104.442 324.488 105.964 324.488Z" fill="#387ED1"/>
<path d="M105.964 304.338C107.414 304.338 108.646 305.571 108.646 307.02C108.646 308.47 107.414 309.702 105.964 309.702C104.514 309.702 103.282 308.47 103.282 307.02C103.282 305.571 104.442 304.338 105.964 304.338Z" fill="#387ED1"/>
<path d="M105.964 284.189C107.414 284.189 108.646 285.421 108.646 286.871C108.646 288.321 107.414 289.553 105.964 289.553C104.514 289.553 103.282 288.321 103.282 286.871C103.282 285.421 104.442 284.189 105.964 284.189Z" fill="#387ED1"/>
<path d="M75.8128 344.637C77.2624 344.637 78.4945 345.869 78.4945 347.318C78.4945 348.768 77.2624 350 75.8128 350C74.3632 350 73.1311 348.768 73.1311 347.318C73.1311 345.796 74.2907 344.637 75.8128 344.637Z" fill="#387ED1"/>
<path d="M75.8128 324.488C77.2624 324.488 78.4945 325.72 78.4945 327.169C78.4945 328.619 77.2624 329.851 75.8128 329.851C74.3632 329.851 73.1311 328.619 73.1311 327.169C73.1311 325.72 74.2907 324.488 75.8128 324.488Z" fill="#387ED1"/>
<path d="M75.8128 304.338C77.2624 304.338 78.4945 305.571 78.4945 307.02C78.4945 308.47 77.2624 309.702 75.8128 309.702C74.3632 309.702 73.1311 308.47 73.1311 307.02C73.1311 305.571 74.2907 304.338 75.8128 304.338Z" fill="#387ED1"/>
<path d="M75.8128 284.189C77.2624 284.189 78.4945 285.421 78.4945 286.871C78.4945 288.321 77.2624 289.553 75.8128 289.553C74.3632 289.553 73.1311 288.321 73.1311 286.871C73.1311 285.421 74.2907 284.189 75.8128 284.189Z" fill="#387ED1"/>
<path d="M198.592 169.455C227.801 169.455 253.893 171.92 271.071 175.761V114.154H126.113V175.761C143.291 171.92 169.383 169.455 198.592 169.455Z" fill="#E8E8ED"/>
<path d="M304.411 119.952H92.7728C91.1783 119.952 89.8737 118.648 89.8737 117.053V111.255C89.8737 109.66 91.1783 108.356 92.7728 108.356H304.411C306.005 108.356 307.31 109.66 307.31 111.255V117.053C307.31 118.648 306.005 119.952 304.411 119.952Z" fill="#F4F4F8"/>
<path d="M369.424 146.117C369.424 146.117 378.847 154.525 395.082 146.117C395.082 146.117 392.763 161.555 382.253 170.977C382.253 170.977 369.062 177.066 356.741 177.428C356.741 177.428 367.322 170.18 369.424 146.117Z" fill="#E8E8ED"/>
<path d="M0 226.206C0 226.206 16.7426 237.151 30.876 227.149C30.876 227.149 34.7898 259.184 47.3286 264.33C47.3286 264.33 40.3707 270.346 27.1071 268.244C27.1795 268.244 14.6407 263.605 0 226.206Z" fill="#F4F4F8"/>
<path d="M243.891 57.1858C243.891 57.1858 235.556 37.8339 219.031 39.356C219.031 39.356 235.049 8.40754 227.511 0C227.511 0 246.065 17.1775 247.95 23.8455C247.95 23.8455 251.646 29.064 243.891 57.1858Z" fill="#E8E8ED"/>
<path d="M384.862 328.981H325.647C324.995 328.981 324.415 328.401 324.415 327.749V253.096C324.415 252.444 324.995 251.864 325.647 251.864H384.862C385.515 251.864 386.094 252.444 386.094 253.096V327.749C386.094 328.474 385.587 328.981 384.862 328.981Z" fill="#F4F4F8"/>
<path opacity="0.5" d="M368.811 254.918L367.622 245.718L343.183 248.877L344.373 258.077L368.811 254.918Z" fill="#C4C4C4"/>
<path opacity="0.5" d="M378.267 268.606H334.49C333.837 268.606 333.257 268.026 333.257 267.374V266.722C333.257 266.07 333.837 265.49 334.49 265.49H378.267C378.919 265.49 379.499 266.07 379.499 266.722V267.374C379.499 268.099 378.919 268.606 378.267 268.606Z" fill="#CCCCCC"/>
<g opacity="0.5">
<path opacity="0.5" d="M354.421 285.204H334.49C333.837 285.204 333.257 284.624 333.257 283.972V283.392C333.257 282.74 333.837 282.16 334.49 282.16H354.421C355.074 282.16 355.653 282.74 355.653 283.392V284.044C355.653 284.697 355.074 285.204 354.421 285.204Z" fill="#CCCCCC"/>
<path opacity="0.5" d="M378.267 285.204H360.147C359.495 285.204 358.915 284.624 358.915 283.972V283.392C358.915 282.74 359.495 282.16 360.147 282.16H378.267C378.919 282.16 379.499 282.74 379.499 283.392V284.044C379.499 284.697 378.919 285.204 378.267 285.204Z" fill="#CCCCCC"/>
</g>
<g opacity="0.5">
<path opacity="0.5" d="M345.071 293.539H334.49C333.837 293.539 333.257 292.959 333.257 292.307V291.655C333.257 291.002 333.837 290.422 334.49 290.422H345.071C345.724 290.422 346.304 291.002 346.304 291.655V292.307C346.304 292.959 345.724 293.539 345.071 293.539Z" fill="#CCCCCC"/>
<path opacity="0.5" d="M363.771 293.539H350.435C349.783 293.539 349.203 292.959 349.203 292.307V291.655C349.203 291.002 349.783 290.422 350.435 290.422H363.771C364.423 290.422 365.003 291.002 365.003 291.655V292.307C365.003 292.959 364.423 293.539 363.771 293.539Z" fill="#CCCCCC"/>
<path opacity="0.5" d="M378.267 293.539H370.512C369.859 293.539 369.279 292.959 369.279 292.307V291.655C369.279 291.002 369.859 290.422 370.512 290.422H378.267C378.919 290.422 379.499 291.002 379.499 291.655V292.307C379.499 292.959 378.919 293.539 378.267 293.539Z" fill="#CCCCCC"/>
</g>
<g opacity="0.5">
<path opacity="0.5" d="M378.267 276.941H347.971C347.318 276.941 346.738 276.362 346.738 275.709V275.057C346.738 274.405 347.318 273.825 347.971 273.825H378.267C378.919 273.825 379.499 274.405 379.499 275.057V275.709C379.499 276.362 378.919 276.941 378.267 276.941Z" fill="#CCCCCC"/>
<path opacity="0.5" d="M342.172 276.941H334.417C333.765 276.941 333.185 276.362 333.185 275.709V275.057C333.185 274.405 333.765 273.825 334.417 273.825H342.172C342.825 273.825 343.404 274.405 343.404 275.057V275.709C343.404 276.362 342.897 276.941 342.172 276.941Z" fill="#CCCCCC"/>
</g>
<g opacity="0.5">
<path opacity="0.5" d="M354.421 310.137H334.49C333.837 310.137 333.257 309.557 333.257 308.905V308.252C333.257 307.6 333.837 307.02 334.49 307.02H354.421C355.074 307.02 355.653 307.6 355.653 308.252V308.905C355.653 309.557 355.074 310.137 354.421 310.137Z" fill="#CCCCCC"/>
</g>
<g opacity="0.5">
<path opacity="0.5" d="M378.267 301.802H347.971C347.318 301.802 346.738 301.222 346.738 300.57V299.917C346.738 299.265 347.318 298.685 347.971 298.685H378.267C378.919 298.685 379.499 299.265 379.499 299.917V300.57C379.499 301.294 378.919 301.802 378.267 301.802Z" fill="#CCCCCC"/>
<path opacity="0.5" d="M342.172 301.802H334.417C333.765 301.802 333.185 301.222 333.185 300.57V299.917C333.185 299.265 333.765 298.685 334.417 298.685H342.172C342.825 298.685 343.404 299.265 343.404 299.917V300.57C343.404 301.294 342.897 301.802 342.172 301.802Z" fill="#CCCCCC"/>
</g>
<path opacity="0.8" d="M331.011 298.685H119.373C117.778 298.685 116.473 297.38 116.473 295.786V156.627C116.473 155.032 117.778 153.728 119.373 153.728H331.011C332.605 153.728 333.91 155.032 333.91 156.627V295.786C333.91 297.38 332.605 298.685 331.011 298.685Z" fill="#FCB040"/>
<path d="M285 158.735C283.867 158.735 283 157.793 283 156.561V108H287V156.561C287 157.793 286.133 158.735 285 158.735Z" fill="#387ED1"/>
<path d="M290 170H280L280.9 162.8C281.6 161.1 283.2 160 285 160C286.8 160 288.4 161.1 289.1 162.8L290 170Z" fill="#387ED1"/>
<path opacity="0.5" d="M70.087 241.427H161.628L171.557 255.923V197.94H70.087V241.427Z" fill="#E8E8ED"/>
<path opacity="0.5" d="M154.452 323.545H226.931V287.306H165.324L154.452 272.81V323.545Z" fill="#E8E8ED"/>
<path d="M289.045 197.795C291.147 197.795 293.104 197.795 294.626 197.65L294.336 199.172C292.669 199.606 291.147 200.404 289.843 201.563C288.466 202.651 286.943 204.608 285.349 207.144L256.575 251.284C256.14 251.284 255.488 251.284 254.618 251.284C253.748 251.284 253.096 251.284 252.661 251.284L246.645 203.955C246.5 202.288 245.92 201.056 245.123 200.331C244.398 199.606 243.746 199.099 242.876 199.099L243.311 197.577C245.848 197.722 249.472 197.722 254.183 197.722C259.184 197.722 263.098 197.722 265.635 197.577L265.345 199.099C263.823 199.099 262.663 199.389 261.721 199.534C260.851 199.824 260.199 200.114 259.764 200.911C259.329 201.491 259.184 202.433 259.184 203.593C259.184 204.173 259.184 204.825 259.329 205.405L263.098 238.89L282.957 208.304C284.479 206.057 285.204 204.1 285.204 202.723C285.204 201.491 284.624 200.621 283.537 200.041C282.45 199.462 281 199.172 278.898 198.954L279.333 197.432C281.218 197.795 284.407 197.795 289.045 197.795Z" fill="#387ED1"/>
<path d="M319.486 238.818L317.53 244.253C316.442 247.153 315.138 249.11 313.326 250.269C311.514 251.429 309.557 252.081 307.6 252.081C305.063 252.081 303.106 251.356 302.019 249.689C301.294 248.602 300.932 247.443 300.932 245.92C300.932 244.688 301.077 243.239 301.512 241.427C298.323 248.53 294.119 252.154 288.828 252.154C286.146 252.154 283.972 251.429 282.522 249.762C281.145 248.095 280.42 245.848 280.42 242.949C280.42 238.455 281.653 233.744 284.044 228.816C286.436 223.814 289.48 219.611 293.104 216.277C296.728 212.943 300.352 211.276 303.831 211.276C305.208 211.276 306.223 211.711 307.165 212.508C308.035 213.233 308.542 214.465 308.687 216.132L309.774 212.363C313.833 212.363 317.457 211.928 320.791 211.276L310.861 244.906C310.572 245.776 310.572 246.428 310.572 247.008C310.572 248.095 311.006 248.675 312.094 248.675C313.906 248.675 315.428 246.718 316.732 242.804L318.109 239.18H319.631V238.818H319.486ZM308.035 217.581C308.035 216.349 307.89 215.479 307.455 214.682C307.02 213.957 306.368 213.812 305.498 213.812C303.831 213.812 301.874 215.334 299.627 218.451C297.525 221.495 295.568 225.409 294.046 230.048C292.524 234.686 291.8 239.107 291.8 243.456C291.8 245.123 291.945 246.355 292.234 247.08C292.524 247.805 293.104 248.167 293.901 248.167C294.989 248.167 296.148 247.443 297.525 245.92C298.902 244.398 300.207 242.152 301.584 239.325C302.961 236.426 304.121 233.019 305.063 229.105L304.773 230.917L308.107 219.176C308.035 218.596 308.035 218.161 308.035 217.581Z" fill="#387ED1"/>
<path d="M345.216 216.349C346.449 214.392 347.753 213.015 349.275 212.29C350.652 211.566 352.319 211.058 354.131 211.058C356.088 211.058 357.61 211.638 358.625 212.725C359.64 213.812 360.292 215.262 360.292 217.074C360.292 218.451 360.002 219.756 359.422 220.988C358.842 222.22 357.9 223.09 356.885 223.887C355.871 224.684 354.639 224.974 353.262 224.974C351.739 224.974 350.725 224.539 349.783 223.742C349.058 223.017 348.55 221.93 348.55 220.408C348.55 219.176 348.84 218.161 349.275 217.074C349.855 215.987 350.652 215.117 351.522 214.392C352.392 213.667 353.479 213.16 354.711 212.87C354.131 212.725 353.841 212.725 353.841 212.725C351.16 212.725 348.55 214.682 345.869 218.451C343.187 222.22 340.433 229.033 337.606 238.963L334.417 251.139H323.835L333.04 218.596C333.33 217.509 333.475 216.784 333.475 216.349C333.475 215.262 333.04 214.827 332.243 214.827C331.373 214.827 330.431 215.262 329.706 216.204C328.981 217.074 328.184 218.596 327.314 220.843L325.792 224.612H324.27L326.227 218.886C328.039 213.74 331.518 211.203 336.591 211.203C340.505 211.203 342.317 213.16 342.317 217.219C342.317 218.596 342.172 220.118 341.737 221.713L341.158 224.249C342.68 220.843 344.057 218.161 345.216 216.349Z" fill="#387ED1"/>
<path d="M366.67 250.414C368.627 250.414 370.149 249.834 371.164 248.747C372.396 247.515 372.976 246.065 372.976 244.108C372.976 242.441 372.686 240.774 371.889 239.107C371.164 237.44 370.077 235.483 368.7 233.237C368.555 232.947 367.975 232.005 366.888 230.555C365.8 229.105 365.221 227.511 364.641 226.206C364.206 224.829 363.916 223.524 363.916 222.147C363.916 220.046 364.496 218.089 365.583 216.422C366.67 214.755 368.265 213.377 370.222 212.508C372.323 211.638 374.715 211.131 377.614 211.131C380.803 211.131 383.63 211.71 385.732 212.943C387.979 214.175 389.066 216.132 389.066 218.958C389.066 219.828 388.921 220.625 388.631 221.495C388.341 222.365 387.761 223.017 387.109 223.597C386.384 224.177 385.587 224.467 384.572 224.467C383.34 224.467 382.326 224.032 381.528 223.09C380.731 222.147 380.296 220.988 380.296 219.466C380.296 218.234 380.586 217.074 381.021 215.987C381.456 214.9 382.108 214.03 382.688 213.305C381.963 212.87 381.021 212.725 380.006 212.725C378.194 212.725 376.672 213.305 375.802 214.392C374.715 215.479 374.28 217.074 374.135 219.031C374.135 220.408 374.425 221.568 374.86 222.655C375.295 223.887 376.092 224.902 376.817 226.134C377.542 227.366 378.194 228.236 378.629 228.815C380.296 231.497 381.311 233.672 382.108 235.266C382.833 236.933 383.195 238.745 383.195 240.412C383.195 242.659 382.615 244.616 381.528 246.283C380.296 248.095 378.629 249.472 376.527 250.342C374.425 251.429 371.889 251.864 368.989 251.864C365.366 251.864 362.539 251.139 360.075 249.762C357.683 248.385 356.596 246.138 356.596 243.166C356.596 241.644 356.885 240.485 357.683 239.397C358.408 238.31 359.495 237.875 360.872 237.875C362.249 237.875 363.264 238.455 364.061 239.542C364.786 240.629 365.293 242.079 365.293 243.746C365.293 244.833 365.148 245.703 365.003 246.645C364.713 247.515 364.568 248.312 364.278 248.892C363.988 249.472 363.988 249.762 363.843 249.979C364.568 250.269 365.438 250.414 366.67 250.414Z" fill="#387ED1"/>
<path d="M400.88 216.059C400.88 214.972 400.445 214.537 399.503 214.537C398.561 214.537 397.691 214.972 396.966 215.914C396.241 216.857 395.444 218.306 394.719 220.408L393.197 224.177H391.675L393.777 218.451C395.589 213.305 399.068 210.768 404.142 210.768C406.388 210.768 408.2 211.348 409.288 212.435C410.375 213.522 410.81 214.972 410.81 216.784C410.81 218.161 410.52 219.683 409.94 221.278L402.112 244.326C401.822 245.196 401.677 245.993 401.677 246.428C401.677 247.515 402.112 247.95 403.199 247.95C403.924 247.95 404.721 247.515 405.446 246.718C406.171 245.848 406.968 244.326 407.838 242.079L409.215 238.455H410.737L408.78 244.036C406.968 249.182 403.634 251.864 398.706 251.864C394.212 251.864 391.893 249.762 391.893 245.703C391.893 244.036 392.183 242.079 392.98 239.977L400.373 218.306C400.518 217.581 400.88 216.784 400.88 216.059ZM404.142 195.983C404.721 194.895 405.809 194.171 406.823 193.591C408.055 193.011 409.215 192.721 410.737 192.721C412.549 192.721 413.926 193.156 414.796 193.953C415.666 194.678 416.318 195.91 416.318 197.432C416.318 198.809 416.028 199.969 415.231 201.056C414.434 202.143 413.564 202.868 412.332 203.448C411.1 204.028 409.795 204.318 408.418 204.318C406.751 204.318 405.374 203.883 404.359 203.086C403.489 202.361 402.837 201.274 402.837 199.752C403.127 198.447 403.417 197.07 404.142 195.983Z" fill="#387ED1"/>
<path d="M426.175 246.065C426.175 247.588 426.9 248.312 428.422 248.312C429.509 248.312 430.524 247.732 431.611 246.645C432.698 245.558 433.568 243.964 434.293 241.789L435.525 238.6H437.047L435.525 242.949C433.568 248.82 429.799 251.864 424.218 251.864C421.681 251.864 419.725 251.284 418.492 249.907C417.115 248.53 416.536 246.718 416.536 244.471C416.536 243.094 416.825 241.572 417.26 239.977L424.798 213.595H417.985L418.42 212.073H425.378L428.712 200.621C433.061 200.621 436.685 200.186 439.729 199.534L436.105 212.073H444.512L444.367 213.595H435.597L426.683 244.471C426.32 245.123 426.175 245.558 426.175 246.065Z" fill="#387ED1"/>
<path d="M469.228 235.339C470.895 232.005 472.127 228.888 472.852 225.844C470.75 224.757 469.083 223.307 467.851 221.64C466.473 219.973 465.894 218.161 466.039 216.204C466.039 214.682 466.473 213.305 467.416 212.435C468.285 211.566 469.518 211.058 471.04 211.058C474.374 211.058 476.041 213.305 476.041 217.871C476.041 220.915 475.316 224.322 473.939 228.236C472.562 232.15 470.75 236.063 468.503 239.977C466.256 243.891 463.864 247.515 461.255 250.704C458.718 253.748 455.819 256.43 452.847 258.822C449.803 261.214 446.542 262.881 443.353 263.968C441.396 264.693 439.584 265.2 437.917 265.2C436.25 265.2 435.018 264.91 434.148 264.113C433.278 263.388 432.771 262.301 432.771 260.924C432.771 259.547 433.206 258.532 434.293 257.59C435.163 256.72 436.54 256.213 438.062 256.213C441.106 256.213 443.788 258.025 446.034 261.503C449.513 259.836 452.847 257.445 455.819 254.546L449.948 218.524C449.658 217.146 449.368 216.277 449.223 215.624C448.934 215.19 448.644 214.9 448.136 214.9C447.556 214.9 447.049 215.19 446.469 215.987C446.034 216.712 445.237 218.234 444.512 220.481L443.135 224.104H441.613L443.57 218.524C444.657 215.624 445.817 213.668 447.339 212.508C448.861 211.276 450.673 210.841 452.775 210.841C454.877 210.841 456.544 211.421 457.776 212.653C459.008 213.885 459.878 215.987 460.313 218.958L463.792 244.761C465.821 241.789 467.633 238.528 469.228 235.339Z" fill="#387ED1"/>
</svg>
