<svg width="414" height="334" xmlns="http://www.w3.org/2000/svg"><g fill="none" fill-rule="evenodd"><path d="M233.411 6.658c-55.33.605-68.362 49.267-108.108 96.15C85.556 149.69 33.887 156.046 33.9 204.531c.014 48.584 38.551 85.177 86.936 89.77 134.039 12.724 224.37-87.887 223.866-159.85C344.193 63.02 304.868 5.875 233.411 6.658M120.28 59.36c7.493 7.944-.19 27.454-17.161 43.575-16.972 16.122-36.805 22.75-44.298 14.806-7.494-7.945.19-27.455 17.16-43.577 16.971-16.121 36.805-22.749 44.299-14.804" fill="#FAFAFB" fill-rule="nonzero"/><path d="M176.835 170.45c-35.888-16.774-44.937-34.495-41.438-45.484 2.775-8.72 12.893-12.882 25.778-10.598l-1.675 9.392c-7.744-1.37-13.763.272-14.98 4.09-1.888 5.934 6.241 19.876 36.38 33.963l-4.065 8.637zm34.38 0l-4.065-8.637c30.14-14.087 38.268-28.03 36.379-33.963-1.216-3.818-7.236-5.462-14.978-4.09l-1.675-9.392c12.885-2.284 23 1.878 25.777 10.598 3.499 10.99-5.55 28.71-41.438 45.484" fill="#FCB040" fill-rule="nonzero"/><path d="M-6 345.4h420V-20H-6z"/><path d="M17.473 317.3h-2.31c.008-.257.013-.514.013-.773a.527.527 0 00-.528-.527H3.352a.527.527 0 00-.528.527c0 .259.005.516.013.772H.527a.527.527 0 00-.527.527c0 2.363.618 4.593 1.739 6.278 1.108 1.666 2.585 2.621 4.18 2.714.361.394.743.715 1.142.96v2.343h-.885c-1.07 0-1.94.87-1.94 1.94v.884H4.2a.527.527 0 000 1.055H13.8a.527.527 0 100-1.055h-.037v-.884c0-1.07-.87-1.94-1.94-1.94h-.885v-2.344c.399-.244.78-.565 1.143-.959 1.594-.093 3.07-1.048 4.18-2.714 1.12-1.685 1.738-3.915 1.738-6.278a.527.527 0 00-.527-.527zm-14.856 6.22c-.925-1.39-1.468-3.208-1.551-5.166h1.83c.19 2.407.755 4.631 1.638 6.397.141.282.288.547.44.798-.877-.332-1.688-1.024-2.357-2.03zm10.092 8.54v.885H5.291v-.884c0-.488.397-.885.885-.885h5.648c.488 0 .885.397.885.885zm-2.824-1.939h-1.77v-1.885a3.464 3.464 0 001.77 0v1.885zm.326-3.14a2.55 2.55 0 01-1.211.316 2.552 2.552 0 01-1.212-.316c-.413-.219-.813-.55-1.192-.983a.532.532 0 00-.067-.079 8.315 8.315 0 01-1.051-1.64c-.97-1.938-1.53-4.486-1.593-7.224h10.23c-.064 2.738-.624 5.287-1.593 7.225a8.321 8.321 0 01-1.051 1.64.52.52 0 00-.068.078c-.378.434-.778.764-1.192.983zm5.172-3.461c-.669 1.005-1.48 1.697-2.358 2.029.153-.25.3-.516.44-.798.884-1.766 1.449-3.99 1.639-6.397h1.83c-.083 1.958-.626 3.776-1.55 5.166zM37.972 319.09V330h-1.279l-5.944-8.565h-.107V330h-1.321v-10.91h1.278l5.966 8.588h.107v-8.587h1.3zm8.608 2.728a1.672 1.672 0 00-.778-1.257c-.455-.298-1.012-.447-1.673-.447-.483 0-.904.078-1.265.234-.36.156-.64.371-.841.645-.201.273-.301.584-.301.932 0 .29.07.54.21.748.14.208.32.38.54.517.22.137.452.248.693.335.242.087.464.158.666.21l1.108.3c.284.074.6.177.95.308s.686.31 1.007.535c.322.226.587.514.797.866.21.352.314.783.314 1.294 0 .59-.153 1.123-.46 1.598-.308.476-.755.854-1.343 1.135-.588.28-1.3.42-2.139.42-.78 0-1.457-.125-2.026-.377-.57-.253-1.018-.604-1.343-1.055a2.996 2.996 0 01-.551-1.572h1.364c.035.412.174.752.418 1.02.243.269.552.468.927.597.374.13.778.195 1.211.195.505 0 .957-.083 1.359-.248a2.3 2.3 0 00.953-.693 1.63 1.63 0 00.352-1.041c0-.362-.102-.657-.304-.884a2.228 2.228 0 00-.799-.554 8.396 8.396 0 00-1.07-.373l-1.343-.384c-.852-.245-1.527-.594-2.024-1.049-.497-.454-.746-1.05-.746-1.784 0-.611.166-1.145.498-1.601.332-.456.78-.811 1.343-1.065.562-.254 1.192-.381 1.888-.381.703 0 1.328.125 1.875.375.547.25.98.592 1.302 1.026.322.433.491.925.509 1.475H46.58zm3.6 8.182v-10.91h6.584v1.173h-5.263v3.686h4.922v1.172h-4.922v3.707h5.348V330H50.18zm10.675-1.491l-.085.575c-.06.405-.152.838-.274 1.3-.123.461-.25.896-.381 1.305l-.212.645c-.041.123-.08.233-.113.33h-.959l.181-.9c.075-.374.15-.79.226-1.25.077-.46.14-.93.19-1.409l.063-.596h1.364zm6.712-9.418h1.576l3.708 9.055h.128l3.707-9.055h1.577V330h-1.236v-8.288h-.107L73.511 330h-1.193l-3.409-8.288h-.106V330h-1.236v-10.91zm22.116 3.409h-1.32a2.774 2.774 0 00-.408-1.001 2.826 2.826 0 00-.703-.728 3.054 3.054 0 00-.914-.444c-.334-.1-.682-.15-1.044-.15-.66 0-1.258.167-1.792.501-.535.334-.96.826-1.273 1.476-.315.65-.472 1.447-.472 2.391 0 .945.157 1.742.472 2.392.314.65.738 1.142 1.273 1.476.534.333 1.132.5 1.792.5.362 0 .71-.05 1.044-.149.334-.1.638-.247.914-.445.275-.197.51-.44.703-.73a2.8 2.8 0 00.407-.998h1.321a4.4 4.4 0 01-.543 1.497c-.263.44-.59.814-.98 1.121-.39.307-.828.54-1.313.7-.485.16-1.003.24-1.553.24-.93 0-1.758-.227-2.482-.682-.725-.454-1.295-1.1-1.71-1.939-.416-.838-.623-1.832-.623-2.983 0-1.15.207-2.144.623-2.983.415-.838.985-1.484 1.71-1.938.724-.455 1.552-.682 2.482-.682.55 0 1.068.08 1.553.24.485.16.922.393 1.313.7.39.307.717.68.98 1.119.263.438.444.938.543 1.499zm2.77-3.41l2.813 4.54h.085l2.812-4.54h1.556l-3.43 5.455 3.43 5.455h-1.556l-2.812-4.453h-.085L92.453 330h-1.555l3.515-5.455-3.515-5.454h1.555zm17.727 4.87v1.171h-4.772v-1.171h4.772zm6.606 6.04v-10.91h3.813c.76 0 1.387.131 1.88.392.494.261.862.611 1.103 1.05.242.438.363.924.363 1.457 0 .468-.083.855-.248 1.16a1.978 1.978 0 01-.65.725 2.994 2.994 0 01-.87.394v.107c.333.021.669.138 1.006.352.337.213.62.518.847.916.227.397.34.884.34 1.46a2.93 2.93 0 01-.372 1.475c-.249.437-.641.783-1.177 1.038-.537.256-1.234.384-2.094.384h-3.941zm1.32-1.172h2.621c.863 0 1.477-.168 1.84-.503.365-.336.547-.743.547-1.223 0-.369-.094-.71-.283-1.025a2.068 2.068 0 00-.804-.757c-.348-.19-.76-.284-1.236-.284h-2.684v3.792zm0-4.943h2.45c.399 0 .758-.078 1.08-.234.32-.157.577-.377.767-.66.19-.285.284-.619.284-1.002 0-.48-.166-.887-.5-1.223-.334-.335-.863-.503-1.588-.503h-2.492v3.622zm9.147 1.364h4.66c0-.462-.091-.874-.274-1.236a2.112 2.112 0 00-.778-.858c-.335-.21-.73-.314-1.185-.314-.5 0-.933.123-1.297.37a2.465 2.465 0 00-.839.962c-.134.27-.222.553-.264.85l-.023.226zm-.003 1.086c.018.544.125 1.01.32 1.398.214.428.513.753.897.975.383.222.83.333 1.337.333.33 0 .63-.047.898-.141.268-.094.5-.236.695-.426a1.91 1.91 0 00.452-.711l1.215.34a2.671 2.671 0 01-.645 1.085c-.301.31-.674.552-1.118.724a4.11 4.11 0 01-1.497.258c-.788 0-1.468-.174-2.037-.524a3.46 3.46 0 01-1.316-1.47c-.307-.63-.46-1.365-.46-2.203 0-.838.153-1.578.46-2.219.307-.64.737-1.141 1.289-1.502.552-.36 1.197-.54 1.936-.54.426 0 .847.07 1.263.213.415.142.793.372 1.134.69.341.317.613.737.815 1.26.203.521.304 1.164.304 1.928v.532h-5.942zm13.655-2.684l-1.13.32a2.181 2.181 0 00-.311-.552 1.563 1.563 0 00-.557-.445c-.234-.117-.534-.176-.9-.176-.5 0-.917.115-1.249.344-.332.229-.498.52-.498.87 0 .313.114.56.34.741.228.181.583.332 1.066.453l1.215.298c.731.178 1.276.449 1.635.813.359.364.538.831.538 1.403 0 .469-.134.888-.402 1.257-.268.37-.642.66-1.121.874-.48.213-1.037.32-1.673.32-.835 0-1.525-.182-2.072-.544-.547-.362-.893-.891-1.039-1.587l1.193-.299c.114.44.33.771.648.991.317.22.734.33 1.249.33.586 0 1.052-.125 1.398-.375.346-.25.52-.551.52-.903a.96.96 0 00-.299-.716c-.199-.194-.504-.339-.916-.434l-1.364-.32c-.75-.178-1.299-.454-1.648-.828-.35-.375-.525-.845-.525-1.41 0-.46.13-.87.391-1.224a2.623 2.623 0 011.071-.837c.453-.202.967-.303 1.542-.303.81 0 1.446.177 1.91.532.463.355.793.824.988 1.407zm5.604-1.833v1.066h-4.24v-1.066h4.24zm-3.005-1.96h1.257v7.798c0 .355.053.62.158.797a.77.77 0 00.404.351c.165.059.34.088.525.088.139 0 .252-.008.34-.024l.214-.04.256 1.13a2.766 2.766 0 01-.357.098c-.153.034-.346.05-.58.05-.356 0-.703-.076-1.042-.229a2.051 2.051 0 01-.842-.697c-.222-.313-.333-.707-.333-1.183v-8.139zm10.611 4.687h2.344c.582 0 1.052-.085 1.409-.255.357-.17.616-.413.777-.727.162-.315.243-.69.243-1.127 0-.437-.082-.818-.245-1.145a1.684 1.684 0 00-.783-.76c-.359-.179-.833-.268-1.423-.268h-2.322v4.282zm0 1.194V330h-1.321v-10.91h3.686c.852 0 1.552.146 2.099.435.547.29.952.686 1.214 1.19.263.505.394 1.078.394 1.721s-.13 1.213-.394 1.71c-.262.497-.666.887-1.209 1.17-.543.281-1.237.423-2.083.423h-2.386zm3.814-.64l2.685 4.901h-1.534l-2.643-4.9h1.492zm5.162.15h4.66c0-.462-.091-.874-.274-1.236a2.112 2.112 0 00-.778-.858c-.335-.21-.73-.314-1.185-.314-.5 0-.933.123-1.297.37a2.465 2.465 0 00-.839.962c-.134.27-.222.553-.264.85l-.023.226zm-.003 1.086c.018.544.125 1.01.32 1.398.214.428.514.753.897.975.384.222.83.333 1.337.333.33 0 .63-.047.898-.141.268-.094.5-.236.695-.426a1.91 1.91 0 00.452-.711l1.215.34a2.672 2.672 0 01-.645 1.085c-.301.31-.674.552-1.118.724a4.11 4.11 0 01-1.497.258c-.788 0-1.467-.174-2.037-.524a3.46 3.46 0 01-1.316-1.47c-.307-.63-.46-1.365-.46-2.203 0-.838.153-1.578.46-2.219.307-.64.737-1.141 1.289-1.502.552-.36 1.198-.54 1.936-.54.426 0 .847.07 1.263.213.415.142.793.372 1.134.69.341.317.613.737.815 1.26.203.521.304 1.164.304 1.928v.532h-5.942zm11.418-4.517v1.066h-4.24v-1.066h4.24zm-3.005-1.96h1.258v7.798c0 .355.052.62.157.797a.77.77 0 00.404.351c.166.059.34.088.525.088.139 0 .252-.008.341-.024l.213-.04.256 1.13a2.766 2.766 0 01-.357.098c-.153.034-.346.05-.58.05-.356 0-.703-.076-1.042-.229a2.051 2.051 0 01-.842-.697c-.222-.313-.333-.707-.333-1.183v-8.139zm7.309 10.334a3.3 3.3 0 01-1.412-.296 2.397 2.397 0 01-1.007-.857c-.248-.375-.373-.829-.373-1.361 0-.47.093-.85.277-1.143.185-.293.432-.523.74-.69.31-.167.652-.292 1.026-.375.375-.084.752-.15 1.132-.2l1.049-.128.163-.019c.31-.033.538-.091.682-.173.144-.081.216-.223.216-.426v-.042c0-.526-.143-.934-.43-1.226-.285-.29-.717-.436-1.296-.436-.6 0-1.071.131-1.412.394-.34.263-.58.543-.719.841l-1.193-.426c.213-.497.498-.885.855-1.164a3.222 3.222 0 011.172-.586 4.907 4.907 0 011.254-.167c.263 0 .566.03.908.093.343.062.675.189.996.38.322.192.589.482.802.869.213.387.32.906.32 1.555V330h-1.257v-1.108h-.064a2.213 2.213 0 01-.427.57 2.459 2.459 0 01-.793.517c-.33.142-.733.213-1.21.213zm.191-1.13c.498 0 .917-.097 1.26-.292.343-.196.602-.448.778-.757.176-.309.264-.634.264-.975v-1.15c-.054.064-.17.121-.35.173-.179.051-.385.096-.617.133l-.344.052-.863.11a4.881 4.881 0 00-.913.206c-.283.094-.51.234-.682.42-.172.187-.258.44-.258.76 0 .436.162.766.487.988.325.222.738.332 1.238.332zm5.86.938v-8.182h1.257V330h-1.257zm.639-9.545a.885.885 0 01-.631-.25.8.8 0 01-.264-.603.8.8 0 01.264-.602.885.885 0 01.631-.25c.245 0 .455.083.631.25a.8.8 0 01.264.602.8.8 0 01-.264.602.885.885 0 01-.631.25zm4.176-1.364V330h-1.257v-10.91h1.257zm6.69 10.909v-10.91h3.814c.76 0 1.387.131 1.88.392.494.261.862.611 1.103 1.05.242.438.363.924.363 1.457 0 .468-.083.855-.248 1.16a1.978 1.978 0 01-.65.725 2.993 2.993 0 01-.87.394v.107c.333.021.668.138 1.006.352.337.213.62.518.847.916.227.397.34.884.34 1.46a2.93 2.93 0 01-.372 1.475c-.249.437-.641.783-1.177 1.038-.537.256-1.234.384-2.094.384h-3.942zm1.321-1.172h2.621c.863 0 1.477-.168 1.84-.503.365-.336.547-.743.547-1.223 0-.369-.095-.71-.283-1.025a2.068 2.068 0 00-.804-.757c-.348-.19-.76-.284-1.236-.284h-2.685v3.792zm0-4.943h2.45c.399 0 .758-.078 1.08-.234.32-.157.576-.377.766-.66.19-.285.285-.619.285-1.002 0-.48-.166-.887-.5-1.223-.334-.335-.863-.503-1.588-.503h-2.493v3.622zm8.268 6.115v-8.182h1.214v1.236h.085c.15-.405.42-.733.81-.985.39-.253.83-.379 1.32-.379l.347.006c.139.003.243.009.314.016v1.278l-.206-.037a3.153 3.153 0 00-.56-.048 2.23 2.23 0 00-1.063.248 1.837 1.837 0 00-1.004 1.67V330h-1.257zm8.906.17c-.739 0-1.386-.175-1.942-.527a3.558 3.558 0 01-1.3-1.475c-.31-.632-.466-1.371-.466-2.216 0-.853.156-1.597.466-2.232.311-.636.744-1.13 1.3-1.481.556-.352 1.203-.527 1.942-.527.738 0 1.386.175 1.941.527.556.352.99.845 1.3 1.48.31.636.466 1.38.466 2.233 0 .845-.155 1.584-.466 2.216a3.558 3.558 0 01-1.3 1.475c-.555.352-1.203.527-1.941.527zm0-1.129c.56 0 1.023-.144 1.385-.431.362-.288.63-.666.804-1.135.174-.469.261-.976.261-1.523 0-.547-.087-1.057-.26-1.53a2.577 2.577 0 00-.805-1.144c-.362-.291-.824-.437-1.385-.437s-1.023.146-1.385.437c-.362.29-.63.673-.804 1.145a4.388 4.388 0 00-.261 1.529c0 .547.087 1.054.26 1.523.175.469.443.847.805 1.135.362.287.824.431 1.385.431zm6.797-2.024l-.022-1.555h.256l3.58-3.644h1.555l-3.814 3.857h-.106l-1.45 1.342zM220.486 330v-10.91h1.257V330h-1.257zm5.199 0l-3.196-4.048.895-.874 3.899 4.922h-1.598zm3.84-4.751h4.661c0-.462-.091-.874-.274-1.236a2.112 2.112 0 00-.778-.858c-.336-.21-.73-.314-1.185-.314-.5 0-.933.123-1.297.37a2.465 2.465 0 00-.84.962c-.133.27-.221.553-.263.85l-.023.226zm-.002 1.086c.018.544.124 1.01.32 1.398.214.428.513.753.897.975.383.222.829.333 1.337.333.33 0 .63-.047.897-.141.268-.094.5-.236.695-.426a1.91 1.91 0 00.453-.711l1.215.34a2.671 2.671 0 01-.645 1.085c-.302.31-.675.552-1.118.724a4.11 4.11 0 01-1.497.258c-.789 0-1.468-.174-2.038-.524a3.46 3.46 0 01-1.315-1.47c-.308-.63-.461-1.365-.461-2.203 0-.838.153-1.578.46-2.219.308-.64.737-1.141 1.29-1.502.552-.36 1.197-.54 1.936-.54.426 0 .847.07 1.262.213.416.142.794.372 1.135.69.34.317.612.737.815 1.26.202.521.303 1.164.303 1.928v.532h-5.941zm7.86 3.665v-8.182h1.214v1.236h.085c.149-.405.419-.733.81-.985.39-.253.83-.379 1.32-.379l.347.006c.138.003.243.009.314.016v1.278l-.206-.037a3.153 3.153 0 00-.56-.048 2.23 2.23 0 00-1.064.248 1.837 1.837 0 00-1.004 1.67V330h-1.257zm7.99.192a3.3 3.3 0 01-1.412-.296 2.397 2.397 0 01-1.007-.857c-.249-.375-.373-.829-.373-1.361 0-.47.092-.85.277-1.143.185-.293.431-.523.74-.69.31-.167.651-.292 1.026-.375.374-.084.752-.15 1.132-.2l1.048-.128.164-.019c.31-.033.538-.091.681-.173.144-.081.216-.223.216-.426v-.042c0-.526-.143-.934-.429-1.226-.286-.29-.718-.436-1.297-.436-.6 0-1.07.131-1.411.394-.341.263-.581.543-.72.841l-1.193-.426c.213-.497.498-.885.855-1.164a3.222 3.222 0 011.172-.586 4.907 4.907 0 011.255-.167c.262 0 .565.03.908.093.342.062.675.189.996.38.321.192.588.482.802.869.213.387.32.906.32 1.555V330h-1.258v-1.108h-.064a2.213 2.213 0 01-.426.57 2.459 2.459 0 01-.794.517c-.33.142-.733.213-1.209.213zm.19-1.13c.498 0 .918-.097 1.26-.292.343-.196.603-.448.778-.757.176-.309.264-.634.264-.975v-1.15c-.053.064-.17.121-.349.173-.18.051-.385.096-.618.133l-.343.052-.863.11a4.881 4.881 0 00-.914.206c-.282.094-.51.234-.682.42-.172.187-.258.44-.258.76 0 .436.163.766.487.988.325.222.738.332 1.239.332zm9.163 4.177c-.607 0-1.13-.078-1.566-.232a3.355 3.355 0 01-1.09-.607 3.34 3.34 0 01-.69-.802l1.002-.703c.114.149.258.32.432.514.174.193.412.362.716.506.304.144.702.216 1.196.216.66 0 1.205-.16 1.635-.48.43-.32.645-.82.645-1.502v-1.662h-.107c-.092.15-.223.333-.391.552-.169.218-.41.411-.725.58-.314.169-.738.253-1.27.253a3.4 3.4 0 01-1.777-.469c-.523-.312-.937-.767-1.24-1.363-.304-.597-.456-1.321-.456-2.174 0-.838.147-1.568.442-2.191.295-.624.705-1.107 1.23-1.45.526-.342 1.133-.513 1.822-.513.533 0 .956.088 1.27.263.315.176.556.375.725.597l.184.247c.083.114.152.214.207.299h.128v-1.3h1.215v8.416c0 .704-.16 1.276-.477 1.718a2.77 2.77 0 01-1.278.975 4.881 4.881 0 01-1.782.312zm-.043-4.496c.505 0 .93-.116 1.279-.346.348-.231.612-.563.793-.996.181-.434.272-.952.272-1.556 0-.59-.089-1.11-.266-1.56-.178-.452-.44-.805-.789-1.06-.348-.256-.777-.384-1.289-.384-.532 0-.975.135-1.329.405-.353.27-.618.632-.793 1.086a4.163 4.163 0 00-.264 1.513c0 .568.09 1.07.269 1.505.18.435.446.776.799 1.023.353.246.793.37 1.318.37zm6.76-3.494h4.66c0-.462-.09-.874-.274-1.236a2.112 2.112 0 00-.777-.858c-.336-.21-.731-.314-1.186-.314-.5 0-.933.123-1.297.37a2.465 2.465 0 00-.839.962c-.133.27-.221.553-.264.85l-.023.226zm-.003 1.086c.018.544.125 1.01.32 1.398.215.428.514.753.897.975.384.222.83.333 1.337.333.33 0 .63-.047.898-.141.268-.094.5-.236.695-.426a1.91 1.91 0 00.453-.711l1.214.34a2.671 2.671 0 01-.644 1.085c-.302.31-.675.552-1.119.724a4.11 4.11 0 01-1.497.258c-.788 0-1.467-.174-2.037-.524a3.46 3.46 0 01-1.316-1.47c-.307-.63-.46-1.365-.46-2.203 0-.838.153-1.578.46-2.219.307-.64.737-1.141 1.29-1.502.551-.36 1.197-.54 1.935-.54.427 0 .847.07 1.263.213.415.142.794.372 1.134.69.341.317.613.737.815 1.26.203.521.304 1.164.304 1.928v.532h-5.942zm14.486 3.857a3.3 3.3 0 01-1.411-.296 2.397 2.397 0 01-1.007-.857c-.249-.375-.373-.829-.373-1.361 0-.47.092-.85.277-1.143.185-.293.431-.523.74-.69.31-.167.651-.292 1.026-.375.374-.084.752-.15 1.132-.2l1.048-.128.163-.019c.311-.033.538-.091.682-.173.144-.081.216-.223.216-.426v-.042c0-.526-.143-.934-.429-1.226-.286-.29-.718-.436-1.297-.436-.6 0-1.07.131-1.411.394-.341.263-.581.543-.72.841l-1.193-.426c.213-.497.498-.885.855-1.164a3.222 3.222 0 011.172-.586 4.907 4.907 0 011.255-.167c.262 0 .565.03.908.093.342.062.674.189.996.38.321.192.588.482.802.869.213.387.32.906.32 1.555V330h-1.258v-1.108h-.064a2.213 2.213 0 01-.426.57 2.459 2.459 0 01-.794.517c-.33.142-.733.213-1.209.213zm.192-1.13c.497 0 .917-.097 1.26-.292.342-.196.602-.448.777-.757.176-.309.264-.634.264-.975v-1.15c-.053.064-.17.121-.349.173-.18.051-.385.096-.618.133l-.343.052-.863.11a4.881 4.881 0 00-.914.206c-.282.094-.51.234-.682.42-.172.187-.258.44-.258.76 0 .436.163.766.487.988.325.222.738.332 1.239.332zm7.713.938l-2.493-8.182h1.321l1.769 6.264h.085l1.747-6.264h1.342l1.726 6.243h.085l1.769-6.243h1.32L290.01 330h-1.236l-1.79-6.286h-.127l-1.79 6.286h-1.236zm12.741.192a3.3 3.3 0 01-1.411-.296 2.397 2.397 0 01-1.007-.857c-.248-.375-.373-.829-.373-1.361 0-.47.093-.85.277-1.143.185-.293.432-.523.74-.69.31-.167.651-.292 1.026-.375.375-.084.752-.15 1.132-.2l1.049-.128.163-.019c.31-.033.538-.091.682-.173.143-.081.215-.223.215-.426v-.042c0-.526-.143-.934-.428-1.226-.286-.29-.719-.436-1.298-.436-.6 0-1.07.131-1.411.394-.341.263-.58.543-.72.841l-1.192-.426c.213-.497.498-.885.855-1.164a3.222 3.222 0 011.171-.586 4.907 4.907 0 011.255-.167c.263 0 .565.03.908.093.343.062.675.189.996.38.322.192.589.482.802.869.213.387.32.906.32 1.555V330h-1.258v-1.108h-.064a2.213 2.213 0 01-.426.57 2.459 2.459 0 01-.793.517c-.33.142-.734.213-1.21.213zm.192-1.13c.497 0 .917-.097 1.26-.292.343-.196.602-.448.778-.757.175-.309.263-.634.263-.975v-1.15c-.053.064-.17.121-.349.173-.179.051-.385.096-.617.133l-.344.052-.863.11a4.881 4.881 0 00-.913.206c-.283.094-.51.234-.682.42-.173.187-.259.44-.259.76 0 .436.163.766.488.988.325.222.737.332 1.238.332zm5.86.938v-8.182h1.214v1.236h.085c.15-.405.42-.733.81-.985.39-.253.83-.379 1.321-.379l.346.006c.139.003.243.009.314.016v1.278l-.206-.037a3.153 3.153 0 00-.56-.048 2.23 2.23 0 00-1.063.248 1.837 1.837 0 00-1.004 1.67V330h-1.257zm8.671.17c-.681 0-1.283-.173-1.805-.519-.522-.346-.93-.836-1.225-1.47-.295-.634-.443-1.384-.443-2.25 0-.86.148-1.606.443-2.238.294-.632.704-1.12 1.23-1.465.526-.344 1.133-.516 1.822-.516.532 0 .954.088 1.265.263.31.176.549.375.714.597l.18.247c.082.114.15.214.206.299h.106v-4.027h1.257V330h-1.214v-1.257h-.15l-.129.197c-.074.108-.162.23-.264.365-.17.225-.414.426-.73.602s-.737.263-1.263.263zm.17-1.129c.505 0 .931-.132 1.28-.397.347-.264.612-.632.793-1.102.181-.47.272-1.015.272-1.633 0-.61-.09-1.146-.267-1.606-.177-.46-.44-.818-.788-1.076-.348-.257-.778-.386-1.29-.386-.532 0-.975.136-1.328.407-.353.272-.618.64-.794 1.103a4.365 4.365 0 00-.263 1.558c0 .582.09 1.11.269 1.585.179.474.445.85.799 1.129.353.279.792.418 1.318.418zm14.958-4.304v1.172h-4.772v-1.172h4.772zm6.414 5.263v-.959l3.6-3.942c.423-.461.771-.863 1.045-1.206.273-.343.476-.666.61-.97.133-.303.2-.622.2-.956 0-.383-.092-.715-.275-.996a1.815 1.815 0 00-.749-.65 2.417 2.417 0 00-1.065-.229c-.419 0-.784.086-1.095.259-.31.172-.55.412-.719.721-.168.31-.253.672-.253 1.087h-1.257c0-.64.148-1.2.442-1.683.295-.483.697-.86 1.207-1.13a3.613 3.613 0 011.718-.404c.639 0 1.205.135 1.699.405s.88.633 1.161 1.092c.28.458.421.967.421 1.528 0 .402-.072.793-.216 1.175-.144.382-.392.806-.745 1.273a22.902 22.902 0 01-1.468 1.707l-2.45 2.62v.086h5.07V330h-6.881zm12.635.15c-.803 0-1.487-.22-2.051-.659-.565-.438-.996-1.076-1.295-1.912-.298-.836-.447-1.847-.447-3.034 0-1.179.15-2.186.45-3.022.3-.837.733-1.476 1.3-1.918.566-.442 1.247-.663 2.043-.663.795 0 1.476.22 2.042.663.567.442 1 1.081 1.3 1.918.3.836.45 1.843.45 3.022 0 1.187-.149 2.198-.447 3.034-.299.836-.73 1.474-1.295 1.912-.564.439-1.248.658-2.05.658zm0-1.173c.795 0 1.413-.383 1.853-1.15.44-.767.66-1.861.66-3.282 0-.944-.1-1.748-.3-2.413-.2-.664-.488-1.17-.863-1.518a1.914 1.914 0 00-1.35-.522c-.789 0-1.405.388-1.849 1.164-.444.776-.666 1.873-.666 3.29 0 .944.1 1.747.299 2.407.199.66.485 1.163.86 1.508.375.344.826.516 1.356.516zm9.652-9.886V330h-1.321v-9.524h-.064l-2.664 1.768v-1.342l2.728-1.811h1.32zm6.626 11.058c-.732 0-1.377-.13-1.936-.391-.56-.261-.995-.622-1.308-1.082a2.704 2.704 0 01-.463-1.574 2.917 2.917 0 01.271-1.28c.185-.393.438-.722.76-.986.32-.265.68-.433 1.078-.504v-.064a2.103 2.103 0 01-1.246-.881 2.65 2.65 0 01-.459-1.548 2.633 2.633 0 01.421-1.486 2.96 2.96 0 011.175-1.033c.499-.252 1.068-.378 1.707-.378.632 0 1.197.126 1.694.378.497.252.889.597 1.174 1.033.286.437.431.933.435 1.486a2.7 2.7 0 01-.472 1.548c-.31.453-.722.747-1.233.881v.064c.394.071.75.24 1.065.504a2.978 2.978 0 011.044 2.267 2.754 2.754 0 01-.476 1.573c-.315.46-.75.82-1.305 1.082-.556.26-1.198.391-1.926.391zm0-1.172c.494 0 .92-.08 1.278-.24.36-.16.636-.385.831-.676.196-.291.295-.632.299-1.023a1.962 1.962 0 00-.32-1.092 2.173 2.173 0 00-.855-.745 2.71 2.71 0 00-1.233-.272c-.465 0-.88.09-1.244.272-.364.18-.65.43-.857.745-.208.316-.31.68-.307 1.092-.003.391.092.732.285 1.023.194.291.472.517.834.677.362.16.792.24 1.289.24zm0-5.177c.39 0 .738-.078 1.041-.235.304-.156.543-.374.717-.655.174-.28.263-.609.266-.985a1.833 1.833 0 00-.26-.967 1.717 1.717 0 00-.71-.64 2.33 2.33 0 00-1.054-.226 2.39 2.39 0 00-1.07.227c-.306.15-.542.364-.71.639a1.793 1.793 0 00-.244.967c-.004.376.08.705.253.985.172.28.41.5.716.655.306.157.657.235 1.055.235zm7.65 4.709l-.086.575c-.06.405-.152.838-.274 1.3-.123.461-.25.896-.381 1.305l-.212.645c-.041.123-.08.233-.113.33h-.959l.181-.9c.075-.374.15-.79.226-1.25.077-.46.14-.93.19-1.409l.064-.596h1.363zm6.519 1.491v-.959l3.6-3.942c.423-.461.771-.863 1.045-1.206.273-.343.477-.666.61-.97.133-.303.2-.622.2-.956 0-.383-.092-.715-.275-.996a1.815 1.815 0 00-.748-.65 2.417 2.417 0 00-1.065-.229c-.42 0-.784.086-1.095.259-.31.172-.55.412-.72.721-.168.31-.252.672-.252 1.087h-1.257c0-.64.147-1.2.442-1.683.295-.483.697-.86 1.206-1.13a3.613 3.613 0 011.718-.404c.64 0 1.206.135 1.7.405.493.27.88.633 1.16 1.092.281.458.421.967.421 1.528 0 .402-.072.793-.215 1.175-.144.382-.393.806-.746 1.273a22.902 22.902 0 01-1.468 1.707l-2.45 2.62v.086h5.071V330h-6.882zm12.635.15c-.803 0-1.486-.22-2.05-.659-.565-.438-.997-1.076-1.295-1.912-.298-.836-.448-1.847-.448-3.034 0-1.179.15-2.186.45-3.022.3-.837.734-1.476 1.3-1.918.567-.442 1.248-.663 2.043-.663.795 0 1.476.22 2.043.663.566.442 1 1.081 1.3 1.918.3.836.45 1.843.45 3.022 0 1.187-.15 2.198-.448 3.034-.298.836-.73 1.474-1.294 1.912-.565.439-1.248.658-2.051.658zm0-1.173c.795 0 1.413-.383 1.854-1.15.44-.767.66-1.861.66-3.282 0-.944-.1-1.748-.3-2.413-.201-.664-.49-1.17-.864-1.518a1.914 1.914 0 00-1.35-.522c-.788 0-1.404.388-1.848 1.164-.444.776-.666 1.873-.666 3.29 0 .944.1 1.747.298 2.407.199.66.486 1.163.86 1.508.375.344.827.516 1.356.516zm9.652-9.886V330h-1.321v-9.524h-.064l-2.663 1.768v-1.342l2.727-1.811h1.321zm6.605-.17c.448.003.895.088 1.342.255a3.27 3.27 0 011.226.831c.369.387.665.914.89 1.58.223.665.335 1.502.335 2.511 0 .97-.092 1.83-.275 2.58-.183.752-.445 1.385-.788 1.9-.343.515-.758.905-1.246 1.172-.489.266-1.04.4-1.654.4-.611 0-1.155-.122-1.633-.366a3.15 3.15 0 01-1.172-1.017 3.503 3.503 0 01-.583-1.516h1.3c.117.501.35.914.7 1.239.35.325.812.487 1.388.487.841 0 1.506-.367 1.994-1.102.489-.735.733-1.774.733-3.116h-.085a3.344 3.344 0 01-.709.772 3.12 3.12 0 01-1.976.676 3.288 3.288 0 01-1.718-.466 3.462 3.462 0 01-1.246-1.283c-.311-.546-.466-1.17-.466-1.873 0-.674.15-1.29.45-1.848.3-.558.722-1.002 1.267-1.332.546-.33 1.187-.492 1.926-.485zm0 1.171c-.447 0-.85.112-1.206.336-.357.224-.64.524-.847.9a2.558 2.558 0 00-.312 1.257c0 .455.1.868.301 1.239.2.37.476.666.826.884.35.218.748.328 1.195.328.338 0 .652-.067.943-.2.291-.133.546-.316.765-.549.218-.232.39-.497.514-.794a2.508 2.508 0 00-.12-2.144 2.47 2.47 0 00-.842-.91 2.192 2.192 0 00-1.217-.347z" fill="#477ECB" fill-rule="nonzero"/><path fill="#FCB040" fill-rule="nonzero" d="M190.35 207.2h8.4v-49.35h-8.4z"/><path d="M147.3 103.25l23.305 63.125a25.522 25.522 0 0023.944 16.675 25.522 25.522 0 0023.946-16.675L241.8 103.25h-94.5zm52.412 103.95h-10.324c-9.327 0-16.888 7.521-16.888 16.8h44.1c0-9.279-7.562-16.8-16.888-16.8" fill="#FCB040" fill-rule="nonzero"/><path fill="#D18A2C" fill-rule="nonzero" d="M169.35 232.4h49.35V224h-49.35z"/><path d="M324.699 49.36a3.422 3.422 0 11-6.843 0 3.422 3.422 0 016.843 0m29.647 0a3.42 3.42 0 11-6.841.003 3.42 3.42 0 016.841-.004m-29.647 29.649a3.421 3.421 0 11-6.843 0 3.421 3.421 0 016.843 0m29.647 0a3.42 3.42 0 11-6.841.002 3.42 3.42 0 016.841-.002m29.648 0a3.421 3.421 0 11-6.842 0 3.421 3.421 0 016.842 0m29.648 0a3.421 3.421 0 11-6.842 0 3.421 3.421 0 016.842 0m-88.943 29.648a3.421 3.421 0 11-6.843 0 3.421 3.421 0 016.843 0m29.647 0a3.42 3.42 0 11-6.841.002 3.42 3.42 0 016.841-.002m29.648 0a3.421 3.421 0 11-6.842 0 3.421 3.421 0 016.842 0m29.648 0a3.421 3.421 0 11-6.842 0 3.421 3.421 0 016.842 0m-59.296 29.648a3.421 3.421 0 11-6.842 0 3.421 3.421 0 016.842 0m29.648 0a3.421 3.421 0 11-6.842 0 3.421 3.421 0 016.842 0m29.648 0a3.421 3.421 0 11-6.842 0 3.421 3.421 0 016.842 0" fill="#FCB040" fill-rule="nonzero"/><path d="M328 5.775a5.775 5.775 0 1111.55 0 5.775 5.775 0 01-11.55 0" fill="#FA5751" fill-rule="nonzero"/><path d="M43.85 180.04L28.999 191.9 26 173l17.85 7.04zM25.5 80.5h147v-14h-147v14zM254.4 238h29.4v-14h-29.4v14zm13.65 29.4h60v-14h-60v14z" fill="#387ED1" fill-rule="nonzero"/></g></svg>